<?xml version="1.0" encoding="utf-8"?>
<!-- Generator: Adobe Illustrator 16.0.0, SVG Export Plug-In . SVG Version: 6.00 Build 0)  -->
<!DOCTYPE svg PUBLIC "-//W3C//DTD SVG 1.1//EN" "http://www.w3.org/Graphics/SVG/1.1/DTD/svg11.dtd">
<svg version="1.1" id="Layer_1" xmlns="http://www.w3.org/2000/svg" xmlns:xlink="http://www.w3.org/1999/xlink" x="0px" y="0px"
	 width="99px" height="183.059px" viewBox="0 0 99 183.059" enable-background="new 0 0 99 183.059" xml:space="preserve">
<g id="Layer_1_1_">
	<path fill="#3E3E3D" d="M81.332,67.351c3.064-4.166,4.299-13.062,0.938-25.853c-1.516-5.766-3.96-11.322-7.912-15.902
		c-5.374-6.229-13.535-10.646-25.935-11.312c-1.3,0.07-2.554,0.183-3.763,0.331c-3.02,0.374-5.758,0.993-8.242,1.821
		c-9.381,3.121-15.134,9.217-18.669,16.408c-0.624,1.144-1.155,2.39-1.602,3.703c-5.278,14.003-2.123,24.378-0.482,32.802
		c2.525,12.967,6.646-9.131,6.899-10.006c0.934-2.705,2.711-4.882,4.919-6.63c0.768-0.278,1.291-0.247,1.291-0.247
		c12.691,0.188,21.96-2.511,28.162-5.353c6.646-3.045,9.771-6.254,9.771-6.254c3.781,4.25,6.055,11.127,7.125,17.344
		C75.164,65.941,77.907,80.11,81.332,67.351z"/>
	<path fill="#3E3E3D" d="M34.274,111.326c11.021-6.256,5.511-15.023,5.511-15.023c-6.615,1.854-6.272-8.138-1.501-21.199
		c4.766-13.059-3.52-20.775-3.52-20.775h-8.474c0,0.004,0,0.004,0,0.008c0.537,6.063-4.213,5.153-11.541,28.502
		C7.415,106.21,23.245,117.593,34.274,111.326z"/>
	<path fill="#FBE9D9" d="M74.783,147.93c0,0-5.613-44.216-22.029-51.125c0,0-0.356-0.156-0.842-0.127
		c-0.172-0.063-0.338-0.111-0.492-0.132l-0.004-3.315c-0.002-1.396-1.134-2.527-2.529-2.527c-1.395,0.004-2.525,1.135-2.523,2.531
		l0.004,3.316c-0.155,0.02-0.323,0.068-0.496,0.134c-0.481-0.026-0.835,0.13-0.835,0.13c-16.404,6.94-21.923,51.172-21.923,51.172
		c-0.584,5.965,3.359,8.648,5.723,7.279c0.46-0.271,0.813-0.67,0.525-1.818c-0.288-1.15,0.569-1.16,1.113-1.393
		c0.544-0.233,0.979-1.043,0.979-1.043c0.866-2.361-1.051-5.767-1.051-5.767c0.257-6.227,0.994-11.68,2.024-16.432
		c-0.284,7.065-0.288,21.005,2.711,36.764c0,0,1.338,1.758,1.515,9.16c0,0,0.056,2.119-0.352,3.646c0,0-0.357,0.557,0.264,0.557
		c0,0,2.78-0.002,3.213-0.004c0.433,0,0.476-0.246,0.476-0.246s1.016-10.566,1.062-12.396c0.045-1.83,1.455-17.754,7.644-17.598
		c6.19-0.17,7.614,15.752,7.664,17.58c0.047,1.828,1.088,12.395,1.088,12.395s0.043,0.242,0.476,0.242s3.215-0.002,3.215-0.002
		c0.622-0.002,0.263-0.555,0.263-0.555c-0.412-1.525-0.358-3.646-0.358-3.646c0.157-7.401,1.493-9.166,1.493-9.166
		c2.965-15.76,2.933-29.694,2.635-36.763c1.039,4.749,1.789,10.198,2.059,16.423c0,0-1.91,3.408-1.039,5.769
		c0,0,0.438,0.811,0.979,1.041c0.544,0.229,1.403,0.242,1.118,1.391c-0.286,1.146,0.065,1.549,0.529,1.816
		C71.442,156.59,75.379,153.898,74.783,147.93z"/>
	<path fill="#FDEADA" d="M84.832,62.273c0.016-4.594-3.636-2.021-5.037-0.871c-0.449-4.039-1.326-8.58-2.707-13.691
		C71.26,26.178,55.293,27.35,48.819,27.061c-6.47,0.305-22.44-0.838-28.222,20.711c-1.372,5.113-2.237,9.654-2.679,13.695
		c-1.403-1.148-5.062-3.712-5.033,0.883c0.031,6.168,2.576,8.108,4.823,8.727c1.434,17.469,13.691,21.777,24.87,23.924
		c0,0,3.276,0.619,6.313,0.679c3.039-0.064,6.312-0.689,6.312-0.689c11.176-2.17,23.424-6.506,24.819-23.977
		C82.271,70.387,84.812,68.443,84.832,62.273z"/>
	<path fill="#071837" d="M47.545,99.13c-0.986-1.848-2.44-2.123-3.219-2.123c-0.679,0-1.174,0.199-1.279,0.246
		c-5.803,2.456-14.496,5.364-17.876,13.165l11.563,7.07c4.408-9.821,9.472-13.769,9.545-13.825
		C48.275,102.231,48.004,100.12,47.545,99.13z"/>
	<path fill="#071837" d="M51.092,99.13c0.986-1.848,2.439-2.123,3.219-2.123c0.679,0,1.174,0.199,1.279,0.246
		c5.803,2.456,14.496,5.364,17.875,13.165l-11.563,7.07c-4.408-9.821-9.472-13.769-9.545-13.825
		C50.361,102.231,50.631,100.12,51.092,99.13z"/>
	<path fill="#EDEDED" d="M52.648,96.373c-0.034,0.027-0.07,0.056-0.104,0.082c-0.592,0.474-1.278,0.83-2.027,1.041
		c-0.5,0.143-1.025,0.224-1.57,0.224c-0.546,0-1.072-0.082-1.572-0.224c-0.749-0.212-1.436-0.567-2.027-1.042
		c-0.034-0.026-0.069-0.054-0.104-0.082c-0.275,0.169-0.567,0.384-0.869,0.635c0.27,0.244,0.558,0.47,0.864,0.667
		c0.847,0.552,1.822,0.916,2.873,1.045c0.274,0.033,0.552,0.056,0.835,0.056c0.282,0,0.561-0.021,0.833-0.055
		c1.05-0.13,2.025-0.494,2.873-1.043c0.308-0.199,0.595-0.425,0.865-0.67C53.215,96.757,52.924,96.541,52.648,96.373z"/>
	<g>
		<path fill="#071837" d="M19.24,146.192c-0.476,0.078-0.749,0.183-0.749,0.183C18.738,146.334,18.989,146.26,19.24,146.192z"/>
		<path fill="#071837" d="M66.205,136.261c-1.255-11.445-1.078-13.067-1.078-13.067c-0.549-5.146-1.98-10.005-3.756-14.168
			c-2.426-5.687-5.492-10.063-7.854-12.02c-0.271,0.245-0.559,0.471-0.865,0.67c-0.848,0.549-1.822,0.913-2.873,1.043
			c-0.273,0.032-0.551,0.055-0.833,0.055c-0.283,0-0.561-0.021-0.835-0.056c-1.051-0.129-2.026-0.493-2.873-1.045
			c-0.307-0.197-0.595-0.423-0.864-0.667c-2.36,1.955-5.428,6.332-7.853,12.019c-1.775,4.162-3.209,9.022-3.757,14.169
			c0,0-0.13,2.366-1.079,13.067c0,0-6.59,8.361-12.445,9.932c1.588-0.26,5.529-0.206,9.892,5.183c5.667,7,8.484,5.333,15.242,2
			s7.09-5,13.758-1.333c6.666,3.667,8.365,0.667,13.017-2.333s4.845-3.666,8.58-1S66.205,136.261,66.205,136.261z"/>
	</g>
	<path d="M36.486,171.517c0.083,0.94,0.147,2.01,0.177,3.25c0,0,0.014,0.518-0.021,1.225c-0.037,0.726-0.124,1.648-0.33,2.42
		c0,0-0.357,0.558,0.264,0.558c0,0,2.78-0.002,3.213-0.005c0.433,0,0.476-0.245,0.476-0.245s0.109-1.138,0.258-2.728
		c0.122-1.311,0.271-2.928,0.406-4.475H36.486z"/>
	<path d="M61.486,171.517c-0.083,0.94-0.146,2.01-0.177,3.25c0,0-0.015,0.518,0.021,1.225c0.037,0.726,0.125,1.648,0.33,2.42
		c0,0,0.357,0.558-0.264,0.558c0,0-2.78-0.002-3.213-0.005c-0.434,0-0.477-0.245-0.477-0.245s-0.108-1.138-0.258-2.728
		c-0.121-1.311-0.271-2.928-0.406-4.475H61.486z"/>
	<ellipse fill="#F9B8B5" cx="30.104" cy="80.774" rx="6.578" ry="5.16"/>
	<ellipse fill="#F9B8B5" cx="66.444" cy="80.774" rx="6.578" ry="5.16"/>
	<path fill="#3E3E3D" d="M82.213,65.31c3.061-4.158,4.293-13.038,0.937-25.808c-1.513-5.756-3.953-11.304-7.897-15.876
		c-5.367-6.216-13.513-10.626-25.891-11.29c-1.298,0.07-2.55,0.183-3.757,0.331c-3.014,0.373-5.748,0.991-8.228,1.818
		c-9.364,3.115-15.107,9.2-18.637,16.38c-0.623,1.141-1.153,2.385-1.599,3.697c-5.27,13.978-2.259,21.839-0.621,30.248
		c2.521,12.943,6.773-6.619,7.027-7.492c0.932-2.701,2.706-4.873,4.91-6.618c0.766-0.278,1.289-0.247,1.289-0.247
		c12.669,0.188,21.922-2.506,28.113-5.343c6.636-3.039,9.754-6.243,9.754-6.243c3.774,4.243,6.045,11.108,7.113,17.314
		C76.057,63.903,78.795,78.048,82.213,65.31z"/>
	<path fill="#BC3F5A" d="M48.948,84.492c0.384-0.26,0.728-0.645,1.302-0.628c0.588,0.017,1.2,0.614,1.592,0.989
		c0.486,0.467,0.832,0.99,1.107,1.47c-1.175,2.26-6.82,2.242-8.001,0c0.505-0.826,1.471-2.143,2.53-2.435
		C48.04,83.734,48.583,84.198,48.948,84.492z M47.042,85.985c0.996,0.408,2.819,0.408,3.815,0
		C50.053,85.328,47.838,85.315,47.042,85.985z"/>
	<circle fill="#FEEEEE" cx="16.521" cy="71.72" r="2.56"/>
	<path fill="#FFFFFF" d="M14.837,70.753l-0.188-0.104c0.352-0.623,1.015-1.011,1.73-1.011v0.215
		C15.744,69.851,15.151,70.197,14.837,70.753z"/>
	<path fill="#FFFFFF" d="M14.609,71.622h-0.215c0-0.215,0.034-0.426,0.102-0.629l0.204,0.068
		C14.64,71.242,14.609,71.432,14.609,71.622z"/>
	<circle fill="#FEEEEE" cx="81.717" cy="71.72" r="2.56"/>
	<path fill="#FFFFFF" d="M79.805,71.622H79.59c0-0.215,0.035-0.426,0.103-0.629l0.204,0.068
		C79.836,71.242,79.805,71.432,79.805,71.622z"/>
	<path fill="#3E3E3D" d="M34.955,94.017H12.898c-0.588,16.354,12.091,23.582,21.374,18.309c11.021-6.256,5.511-15.023,5.511-15.023
		C37.007,98.079,35.466,96.761,34.955,94.017z"/>
	<path fill="#FFFFFF" d="M80.035,70.753l-0.189-0.104c0.353-0.623,1.016-1.011,1.73-1.011v0.215
		C80.939,69.851,80.348,70.197,80.035,70.753z"/>
</g>
<g id="Layer_2">
</g>
</svg>
